<svg xmlns="http://www.w3.org/2000/svg" viewBox="0 0 360 220" width="360" height="220" role="img" aria-label="조제전당 — Efficiency 100">
  
  <g transform="translate(70,20)">
    
    <rect x="-22" y="4" width="44" height="14" fill="#2A1F18"></rect>
    
    <rect x="-44" y="9" width="22" height="9" fill="#2A1F18"></rect>
    
    <rect x="-12" y="18" width="24" height="6" fill="#2A1F18"></rect>
    
    <path d="M -34 24 L 34 24 L 34 158 Q 34 170 22 170 L -22 170 Q -34 170 -34 158 Z" fill="#2A1F18"></path>
    
    <rect x="-26" y="62" width="52" height="78" fill="#F4EFE6"></rect>
    
    <rect x="-23" y="65" width="46" height="72" fill="none" stroke="#8C6B4A" stroke-width="0.7"></rect>
    
    <line x1="-19" y1="76" x2="19" y2="76" stroke="#8C6B4A" stroke-width="0.5"></line>
    <text x="0" y="74" text-anchor="middle" font-family="&#39;Cormorant Garamond&#39;,serif" font-style="italic" font-size="7" fill="#8C6B4A" letter-spacing="2">EFFICIENCY 100</text>
    
    <text x="0" y="116" text-anchor="middle" font-family="&#39;Gowun Batang&#39;,serif" font-size="34" fill="#2A1F18">조</text>
    
    <line x1="-19" y1="125" x2="19" y2="125" stroke="#8C6B4A" stroke-width="0.5"></line>
    <text x="0" y="132" text-anchor="middle" font-family="&#39;Pretendard&#39;,sans-serif" font-size="5.5" fill="#8C6B4A" letter-spacing="1.4">JOJEJEONDANG</text>
  </g>

  
  <line x1="148" y1="60" x2="190" y2="60" stroke="#C9A57C" stroke-width="0.8"></line>
  <text x="204" y="64" font-family="&#39;Fraunces&#39;,serif" font-style="italic" font-size="11" fill="#8C6B4A" letter-spacing="3">2026 EDITION</text>

  <text x="148" y="108" font-family="&#39;Gowun Batang&#39;,serif" font-size="36" fill="#2A1F18" letter-spacing="3" font-weight="400">조제전당</text>
  <text x="148" y="138" font-family="&#39;Fraunces&#39;,serif" font-style="italic" font-size="14" fill="#8C6B4A" letter-spacing="5">Efficiency 100</text>

  <line x1="148" y1="158" x2="320" y2="158" stroke="#C9A57C" stroke-width="0.6"></line>
  <text x="148" y="176" font-family="&#39;Pretendard&#39;,sans-serif" font-size="10" fill="#6E6353" letter-spacing="2">맞춤형화장품조제관리사 합격연구소</text>
</svg>